<?xml version="1.0" encoding="UTF-8" standalone="no"?>
<!DOCTYPE svg PUBLIC "-//W3C//DTD SVG 1.1//EN" "http://www.w3.org/Graphics/SVG/1.1/DTD/svg11.dtd">
<svg width="100%" height="100%" viewBox="0 0 550 200" version="1.1" xmlns="http://www.w3.org/2000/svg" xmlns:xlink="http://www.w3.org/1999/xlink" xml:space="preserve" xmlns:serif="http://www.serif.com/" style="fill-rule:evenodd;clip-rule:evenodd;stroke-linecap:round;stroke-linejoin:round;stroke-miterlimit:1.5;">
    <g id="gboop_logo" transform="matrix(0.167946,0,0,0.174204,-63.2083,-61.0731)">
        <rect x="376.361" y="350.583" width="3274.87" height="1148.08" style="fill:none;"/>
        <g transform="matrix(6.46576,0,0,6.23346,-3368.18,-2830.12)">
            <g transform="matrix(0.158262,0,0,0.155049,524.222,434.722)">
                <path d="M3401.85,1081.14C3401.85,966.486 3357.23,856.528 3277.8,775.455C3198.38,694.381 3090.65,648.835 2978.32,648.835C2426.63,648.835 1467.66,648.835 915.971,648.835C803.644,648.835 695.918,694.381 616.491,775.454C537.063,856.528 492.442,966.486 492.442,1081.14C492.442,1081.14 492.442,1081.15 492.442,1081.15C492.442,1195.81 537.063,1305.77 616.491,1386.84C695.918,1467.91 803.644,1513.46 915.971,1513.46C1467.66,1513.46 2426.63,1513.46 2978.32,1513.46C3090.65,1513.46 3198.38,1467.91 3277.8,1386.84C3357.23,1305.77 3401.85,1195.81 3401.85,1081.15C3401.85,1081.15 3401.85,1081.14 3401.85,1081.14Z" style="fill:rgb(229,225,222);stroke:rgb(54,54,133);stroke-width:98.92px;"/>
            </g>
            <g transform="matrix(0.210954,0,0,0.210954,481.477,393.986)">
                <g transform="matrix(600,0,0,600,648.691,1200.67)">
                    <path d="M0.655,-0.047C0.586,-0.007 0.501,0.012 0.4,0.012C0.287,0.012 0.198,-0.019 0.134,-0.081C0.069,-0.144 0.036,-0.229 0.036,-0.339C0.036,-0.449 0.072,-0.539 0.143,-0.608C0.214,-0.677 0.308,-0.712 0.426,-0.712C0.5,-0.712 0.565,-0.702 0.622,-0.681L0.622,-0.533C0.568,-0.564 0.502,-0.58 0.424,-0.58C0.358,-0.58 0.305,-0.559 0.264,-0.516C0.223,-0.474 0.202,-0.417 0.202,-0.346C0.202,-0.274 0.221,-0.219 0.258,-0.179C0.295,-0.14 0.344,-0.12 0.407,-0.12C0.445,-0.12 0.475,-0.125 0.497,-0.136L0.497,-0.273L0.357,-0.273L0.357,-0.399L0.655,-0.399L0.655,-0.047Z" style="fill:rgb(54,54,133);fill-rule:nonzero;"/>
                </g>
                <g transform="matrix(600,0,0,600,1075.25,1200.67)">
                    <path d="M0.08,0L0.08,-0.7L0.335,-0.7C0.413,-0.7 0.473,-0.686 0.515,-0.657C0.557,-0.629 0.578,-0.588 0.578,-0.536C0.578,-0.498 0.565,-0.465 0.54,-0.437C0.514,-0.409 0.482,-0.389 0.442,-0.378L0.442,-0.376C0.492,-0.37 0.531,-0.351 0.561,-0.321C0.591,-0.29 0.606,-0.253 0.606,-0.209C0.606,-0.145 0.583,-0.094 0.537,-0.056C0.491,-0.019 0.429,0 0.349,0L0.08,0ZM0.238,-0.584L0.238,-0.418L0.307,-0.418C0.34,-0.418 0.365,-0.426 0.384,-0.442C0.403,-0.457 0.412,-0.479 0.412,-0.507C0.412,-0.558 0.374,-0.584 0.297,-0.584L0.238,-0.584ZM0.238,-0.301L0.238,-0.116L0.323,-0.116C0.36,-0.116 0.388,-0.125 0.409,-0.142C0.43,-0.159 0.44,-0.182 0.44,-0.211C0.44,-0.239 0.43,-0.261 0.409,-0.277C0.389,-0.293 0.361,-0.301 0.324,-0.301L0.238,-0.301Z" style="fill:rgb(54,54,133);fill-rule:nonzero;"/>
                </g>
                <g transform="matrix(600,0,0,600,2287.56,1200.67)">
                    <path d="M0.238,-0.241L0.238,0L0.08,0L0.08,-0.7L0.327,-0.7C0.504,-0.7 0.592,-0.626 0.592,-0.477C0.592,-0.407 0.566,-0.35 0.516,-0.306C0.465,-0.263 0.398,-0.241 0.313,-0.241L0.238,-0.241ZM0.238,-0.579L0.238,-0.361L0.3,-0.361C0.384,-0.361 0.426,-0.398 0.426,-0.471C0.426,-0.543 0.384,-0.579 0.3,-0.579L0.238,-0.579Z" style="fill:rgb(54,54,133);fill-rule:nonzero;"/>
                </g>
            </g>
            <g transform="matrix(1.2727,0,0,1.2727,-841.178,186.347)">
                <g transform="matrix(50,0,0,50,1371.61,339.521)">
                    <path d="M0.073,0L0.073,-0.716L0.342,-0.716C0.396,-0.716 0.44,-0.709 0.473,-0.694C0.506,-0.68 0.532,-0.657 0.551,-0.627C0.57,-0.597 0.579,-0.566 0.579,-0.533C0.579,-0.502 0.571,-0.473 0.554,-0.446C0.538,-0.419 0.513,-0.397 0.479,-0.381C0.522,-0.368 0.556,-0.347 0.579,-0.316C0.602,-0.285 0.614,-0.249 0.614,-0.208C0.614,-0.174 0.607,-0.143 0.593,-0.114C0.578,-0.085 0.561,-0.063 0.54,-0.047C0.519,-0.032 0.493,-0.02 0.462,-0.012C0.43,-0.004 0.392,0 0.346,0L0.073,0ZM0.168,-0.415L0.323,-0.415C0.365,-0.415 0.395,-0.418 0.413,-0.423C0.437,-0.431 0.455,-0.442 0.468,-0.459C0.48,-0.476 0.486,-0.496 0.486,-0.521C0.486,-0.545 0.48,-0.566 0.469,-0.584C0.457,-0.602 0.441,-0.615 0.42,-0.621C0.399,-0.628 0.362,-0.631 0.311,-0.631L0.168,-0.631L0.168,-0.415ZM0.168,-0.084L0.346,-0.084C0.377,-0.084 0.398,-0.086 0.411,-0.088C0.432,-0.092 0.451,-0.098 0.465,-0.107C0.48,-0.117 0.492,-0.13 0.501,-0.147C0.511,-0.165 0.516,-0.185 0.516,-0.208C0.516,-0.234 0.509,-0.257 0.495,-0.277C0.481,-0.297 0.462,-0.311 0.438,-0.319C0.414,-0.327 0.379,-0.331 0.333,-0.331L0.168,-0.331L0.168,-0.084Z" style="fill-rule:nonzero;"/>
                </g>
            </g>
            <g transform="matrix(0.193934,0,0,0.193934,519.544,531.988)">
                <g transform="matrix(0.906566,0,0,0.906566,330.54,39.9838)">
                    <circle cx="1429.93" cy="396.989" r="220.613" style="fill:rgb(149,27,82);"/>
                </g>
                <g transform="matrix(1.05853,0,0,0.714509,1226.7,205.243)">
                    <rect x="189.102" y="188.433" width="377.882" height="83.974" style="fill:rgb(149,27,82);"/>
                </g>
                <g transform="matrix(0.906566,0,0,0.906566,330.54,-20.0162)">
                    <circle cx="1429.93" cy="396.989" r="220.613" style="fill:rgb(207,40,117);"/>
                </g>
            </g>
            <g transform="matrix(0.193934,0,0,0.193934,608.175,531.545)">
                <g transform="matrix(0.906566,0,0,0.906566,330.54,39.9838)">
                    <circle cx="1429.93" cy="396.989" r="220.613" style="fill:rgb(149,27,82);"/>
                </g>
                <g transform="matrix(1.05853,0,0,0.714509,1226.7,205.243)">
                    <rect x="189.102" y="188.433" width="377.882" height="83.974" style="fill:rgb(149,27,82);"/>
                </g>
                <g transform="matrix(0.906566,0,0,0.906566,330.54,-20.0162)">
                    <circle cx="1429.93" cy="396.989" r="220.613" style="fill:rgb(207,40,117);"/>
                </g>
            </g>
        </g>
    </g>
</svg>
